<?xml version="1.0" encoding="UTF-8" standalone="no"?>
<!DOCTYPE svg PUBLIC "-//W3C//DTD SVG 1.1//EN"
 "http://www.w3.org/Graphics/SVG/1.1/DTD/svg11.dtd">
<!-- Generated by graphviz version 2.38.0 (20140413.2041)
 -->
<!-- Title: controllers_diagram Pages: 1 -->
<svg width="891pt" height="808pt"
 viewBox="0.00 0.00 891.25 808.46" xmlns="http://www.w3.org/2000/svg" xmlns:xlink="http://www.w3.org/1999/xlink">
<g id="graph0" class="graph" transform="scale(1 1) rotate(0) translate(452.112 356.957)">
<title>controllers_diagram</title>
<polygon fill="none" stroke="none" points="-452.112,451.5 -452.112,-356.957 439.138,-356.957 439.138,451.5 -452.112,451.5"/>
<!-- _diagram_info -->
<g id="node1" class="node"><title>_diagram_info</title>
<text text-anchor="start" x="200.312" y="388.9" font-family="Times,serif" font-size="13.00">Controllers diagram</text>
<text text-anchor="start" x="200.312" y="401.9" font-family="Times,serif" font-size="13.00">Date: Sep 15 2016 &#45; 17:43</text>
<text text-anchor="start" x="200.312" y="414.9" font-family="Times,serif" font-size="13.00">Migration version: 20160915214137</text>
<text text-anchor="start" x="200.312" y="427.9" font-family="Times,serif" font-size="13.00">Generated by RailRoady 1.5.1</text>
<text text-anchor="start" x="200.312" y="440.9" font-family="Times,serif" font-size="13.00">http://railroady.prestonlee.com</text>
</g>
<!-- ApplicationController -->
<g id="node2" class="node"><title>ApplicationController</title>
<path fill="none" stroke="black" d="M-373.265,72.7459C-373.265,72.7459 -257.624,72.7459 -257.624,72.7459 -251.624,72.7459 -245.624,66.7459 -245.624,60.7459 -245.624,60.7459 -245.624,-7.25406 -245.624,-7.25406 -245.624,-13.2541 -251.624,-19.2541 -257.624,-19.2541 -257.624,-19.2541 -373.265,-19.2541 -373.265,-19.2541 -379.265,-19.2541 -385.265,-13.2541 -385.265,-7.25406 -385.265,-7.25406 -385.265,60.7459 -385.265,60.7459 -385.265,66.7459 -379.265,72.7459 -373.265,72.7459"/>
<text text-anchor="middle" x="-315.444" y="-4.05406" font-family="Times,serif" font-size="14.00">ApplicationController</text>
<polyline fill="none" stroke="black" points="-385.265,2.74594 -245.624,2.74594 "/>
<polyline fill="none" stroke="black" points="-385.265,26.7459 -245.624,26.7459 "/>
<polyline fill="none" stroke="black" points="-385.265,50.7459 -245.624,50.7459 "/>
<text text-anchor="start" x="-377.265" y="65.9459" font-family="Times,serif" font-size="14.00">_layout</text>
</g>
<!-- DeviseController -->
<g id="node9" class="node"><title>DeviseController</title>
<path fill="none" stroke="black" d="M-77.336,210.788C-77.336,210.788 93.54,210.788 93.54,210.788 99.54,210.788 105.54,204.788 105.54,198.788 105.54,198.788 105.54,-145.212 105.54,-145.212 105.54,-151.212 99.54,-157.212 93.54,-157.212 93.54,-157.212 -77.336,-157.212 -77.336,-157.212 -83.336,-157.212 -89.336,-151.212 -89.336,-145.212 -89.336,-145.212 -89.336,198.788 -89.336,198.788 -89.336,204.788 -83.336,210.788 -77.336,210.788"/>
<text text-anchor="middle" x="8.10199" y="-142.012" font-family="Times,serif" font-size="14.00">DeviseController</text>
<polyline fill="none" stroke="black" points="-89.336,-135.212 105.54,-135.212 "/>
<text text-anchor="start" x="-81.336" y="-120.012" font-family="Times,serif" font-size="14.00">_prefixes</text>
<polyline fill="none" stroke="black" points="-89.336,-113.212 105.54,-113.212 "/>
<text text-anchor="start" x="-81.336" y="-98.0122" font-family="Times,serif" font-size="14.00">unknown_action!</text>
<text text-anchor="start" x="-81.336" y="-84.0122" font-family="Times,serif" font-size="14.00">clean_up_passwords</text>
<text text-anchor="start" x="-81.336" y="-70.0122" font-family="Times,serif" font-size="14.00">devise_i18n_options</text>
<text text-anchor="start" x="-81.336" y="-56.0122" font-family="Times,serif" font-size="14.00">devise_mapping</text>
<text text-anchor="start" x="-81.336" y="-42.0122" font-family="Times,serif" font-size="14.00">find_message</text>
<text text-anchor="start" x="-81.336" y="-28.0122" font-family="Times,serif" font-size="14.00">navigational_formats</text>
<text text-anchor="start" x="-81.336" y="-14.0122" font-family="Times,serif" font-size="14.00">require_no_authentication</text>
<text text-anchor="start" x="-81.336" y="-0.0122461" font-family="Times,serif" font-size="14.00">resource</text>
<text text-anchor="start" x="-81.336" y="13.9878" font-family="Times,serif" font-size="14.00">resource=</text>
<text text-anchor="start" x="-81.336" y="27.9878" font-family="Times,serif" font-size="14.00">resource_class</text>
<text text-anchor="start" x="-81.336" y="41.9878" font-family="Times,serif" font-size="14.00">resource_name</text>
<text text-anchor="start" x="-81.336" y="55.9878" font-family="Times,serif" font-size="14.00">resource_params</text>
<text text-anchor="start" x="-81.336" y="69.9878" font-family="Times,serif" font-size="14.00">respond_with_navigational</text>
<text text-anchor="start" x="-81.336" y="83.9878" font-family="Times,serif" font-size="14.00">scope_name</text>
<text text-anchor="start" x="-81.336" y="97.9878" font-family="Times,serif" font-size="14.00">set_flash_message</text>
<text text-anchor="start" x="-81.336" y="111.988" font-family="Times,serif" font-size="14.00">set_flash_message!</text>
<text text-anchor="start" x="-81.336" y="125.988" font-family="Times,serif" font-size="14.00">set_minimum_password_length</text>
<text text-anchor="start" x="-81.336" y="139.988" font-family="Times,serif" font-size="14.00">signed_in_resource</text>
<text text-anchor="start" x="-81.336" y="153.988" font-family="Times,serif" font-size="14.00">successfully_sent?</text>
<text text-anchor="start" x="-81.336" y="167.988" font-family="Times,serif" font-size="14.00">translation_scope</text>
<text text-anchor="start" x="-81.336" y="181.988" font-family="Times,serif" font-size="14.00">assert_is_devise_resource!</text>
<polyline fill="none" stroke="black" points="-89.336,188.788 105.54,188.788 "/>
<text text-anchor="start" x="-81.336" y="203.988" font-family="Times,serif" font-size="14.00">_layout</text>
</g>
<!-- ApplicationController&#45;&gt;DeviseController -->
<g id="edge7" class="edge"><title>ApplicationController&#45;&gt;DeviseController</title>
<path fill="none" stroke="black" d="M-245.24,26.755C-199.705,26.7609 -139.739,26.7686 -89.5794,26.7751"/>
</g>
<!-- Devise::ConfirmationsController -->
<g id="node3" class="node"><title>Devise::ConfirmationsController</title>
<path fill="none" stroke="black" d="M138.765,302.298C138.765,302.298 423.138,302.298 423.138,302.298 429.138,302.298 435.138,296.298 435.138,290.298 435.138,290.298 435.138,170.298 435.138,170.298 435.138,164.298 429.138,158.298 423.138,158.298 423.138,158.298 138.765,158.298 138.765,158.298 132.765,158.298 126.765,164.298 126.765,170.298 126.765,170.298 126.765,290.298 126.765,290.298 126.765,296.298 132.765,302.298 138.765,302.298"/>
<text text-anchor="middle" x="280.951" y="173.498" font-family="Times,serif" font-size="14.00">Devise::ConfirmationsController</text>
<polyline fill="none" stroke="black" points="126.765,180.298 435.138,180.298 "/>
<text text-anchor="start" x="134.765" y="195.498" font-family="Times,serif" font-size="14.00">create</text>
<text text-anchor="start" x="134.765" y="209.498" font-family="Times,serif" font-size="14.00">new</text>
<text text-anchor="start" x="134.765" y="223.498" font-family="Times,serif" font-size="14.00">show</text>
<polyline fill="none" stroke="black" points="126.765,230.298 435.138,230.298 "/>
<text text-anchor="start" x="134.765" y="245.498" font-family="Times,serif" font-size="14.00">after_confirmation_path_for</text>
<text text-anchor="start" x="134.765" y="259.498" font-family="Times,serif" font-size="14.00">after_resending_confirmation_instructions_path_for</text>
<text text-anchor="start" x="134.765" y="273.498" font-family="Times,serif" font-size="14.00">translation_scope</text>
<polyline fill="none" stroke="black" points="126.765,280.298 435.138,280.298 "/>
<text text-anchor="start" x="134.765" y="295.498" font-family="Times,serif" font-size="14.00">_layout</text>
</g>
<!-- Devise::OmniauthCallbacksController -->
<g id="node4" class="node"><title>Devise::OmniauthCallbacksController</title>
<path fill="none" stroke="black" d="M-105.538,383.941C-105.538,383.941 101.862,383.941 101.862,383.941 107.862,383.941 113.862,377.941 113.862,371.941 113.862,371.941 113.862,251.941 113.862,251.941 113.862,245.941 107.862,239.941 101.862,239.941 101.862,239.941 -105.538,239.941 -105.538,239.941 -111.538,239.941 -117.538,245.941 -117.538,251.941 -117.538,251.941 -117.538,371.941 -117.538,371.941 -117.538,377.941 -111.538,383.941 -105.538,383.941"/>
<text text-anchor="middle" x="-1.83781" y="255.141" font-family="Times,serif" font-size="14.00">Devise::OmniauthCallbacksController</text>
<polyline fill="none" stroke="black" points="-117.538,261.941 113.862,261.941 "/>
<text text-anchor="start" x="-109.538" y="277.141" font-family="Times,serif" font-size="14.00">failure</text>
<text text-anchor="start" x="-109.538" y="291.141" font-family="Times,serif" font-size="14.00">passthru</text>
<polyline fill="none" stroke="black" points="-117.538,297.941 113.862,297.941 "/>
<text text-anchor="start" x="-109.538" y="313.141" font-family="Times,serif" font-size="14.00">after_omniauth_failure_path_for</text>
<text text-anchor="start" x="-109.538" y="327.141" font-family="Times,serif" font-size="14.00">failed_strategy</text>
<text text-anchor="start" x="-109.538" y="341.141" font-family="Times,serif" font-size="14.00">failure_message</text>
<text text-anchor="start" x="-109.538" y="355.141" font-family="Times,serif" font-size="14.00">translation_scope</text>
<polyline fill="none" stroke="black" points="-117.538,361.941 113.862,361.941 "/>
<text text-anchor="start" x="-109.538" y="377.141" font-family="Times,serif" font-size="14.00">_layout</text>
</g>
<!-- Devise::PasswordsController -->
<g id="node5" class="node"><title>Devise::PasswordsController</title>
<path fill="none" stroke="black" d="M-164.835,-166.457C-164.835,-166.457 123.428,-166.457 123.428,-166.457 129.428,-166.457 135.428,-172.457 135.428,-178.457 135.428,-178.457 135.428,-340.457 135.428,-340.457 135.428,-346.457 129.428,-352.457 123.428,-352.457 123.428,-352.457 -164.835,-352.457 -164.835,-352.457 -170.835,-352.457 -176.835,-346.457 -176.835,-340.457 -176.835,-340.457 -176.835,-178.457 -176.835,-178.457 -176.835,-172.457 -170.835,-166.457 -164.835,-166.457"/>
<text text-anchor="middle" x="-20.7035" y="-337.257" font-family="Times,serif" font-size="14.00">Devise::PasswordsController</text>
<polyline fill="none" stroke="black" points="-176.835,-330.457 135.428,-330.457 "/>
<text text-anchor="start" x="-168.835" y="-315.257" font-family="Times,serif" font-size="14.00">create</text>
<text text-anchor="start" x="-168.835" y="-301.257" font-family="Times,serif" font-size="14.00">edit</text>
<text text-anchor="start" x="-168.835" y="-287.257" font-family="Times,serif" font-size="14.00">new</text>
<text text-anchor="start" x="-168.835" y="-273.257" font-family="Times,serif" font-size="14.00">update</text>
<polyline fill="none" stroke="black" points="-176.835,-266.457 135.428,-266.457 "/>
<text text-anchor="start" x="-168.835" y="-251.257" font-family="Times,serif" font-size="14.00">after_resetting_password_path_for</text>
<text text-anchor="start" x="-168.835" y="-237.257" font-family="Times,serif" font-size="14.00">after_sending_reset_password_instructions_path_for</text>
<text text-anchor="start" x="-168.835" y="-223.257" font-family="Times,serif" font-size="14.00">assert_reset_token_passed</text>
<text text-anchor="start" x="-168.835" y="-209.257" font-family="Times,serif" font-size="14.00">translation_scope</text>
<text text-anchor="start" x="-168.835" y="-195.257" font-family="Times,serif" font-size="14.00">unlockable?</text>
<polyline fill="none" stroke="black" points="-176.835,-188.457 135.428,-188.457 "/>
<text text-anchor="start" x="-168.835" y="-173.257" font-family="Times,serif" font-size="14.00">_layout</text>
</g>
<!-- Devise::RegistrationsController -->
<g id="node6" class="node"><title>Devise::RegistrationsController</title>
<path fill="none" stroke="black" d="M186.569,-43.2453C186.569,-43.2453 361.287,-43.2453 361.287,-43.2453 367.287,-43.2453 373.287,-49.2453 373.287,-55.2453 373.287,-55.2453 373.287,-329.245 373.287,-329.245 373.287,-335.245 367.287,-341.245 361.287,-341.245 361.287,-341.245 186.569,-341.245 186.569,-341.245 180.569,-341.245 174.569,-335.245 174.569,-329.245 174.569,-329.245 174.569,-55.2453 174.569,-55.2453 174.569,-49.2453 180.569,-43.2453 186.569,-43.2453"/>
<text text-anchor="middle" x="273.928" y="-326.045" font-family="Times,serif" font-size="14.00">Devise::RegistrationsController</text>
<polyline fill="none" stroke="black" points="174.569,-319.245 373.287,-319.245 "/>
<text text-anchor="start" x="182.569" y="-304.045" font-family="Times,serif" font-size="14.00">cancel</text>
<text text-anchor="start" x="182.569" y="-290.045" font-family="Times,serif" font-size="14.00">create</text>
<text text-anchor="start" x="182.569" y="-276.045" font-family="Times,serif" font-size="14.00">destroy</text>
<text text-anchor="start" x="182.569" y="-262.045" font-family="Times,serif" font-size="14.00">edit</text>
<text text-anchor="start" x="182.569" y="-248.045" font-family="Times,serif" font-size="14.00">new</text>
<text text-anchor="start" x="182.569" y="-234.045" font-family="Times,serif" font-size="14.00">update</text>
<polyline fill="none" stroke="black" points="174.569,-227.245 373.287,-227.245 "/>
<text text-anchor="start" x="182.569" y="-212.045" font-family="Times,serif" font-size="14.00">update_resource</text>
<text text-anchor="start" x="182.569" y="-198.045" font-family="Times,serif" font-size="14.00">after_inactive_sign_up_path_for</text>
<text text-anchor="start" x="182.569" y="-184.045" font-family="Times,serif" font-size="14.00">after_sign_up_path_for</text>
<text text-anchor="start" x="182.569" y="-170.045" font-family="Times,serif" font-size="14.00">after_update_path_for</text>
<text text-anchor="start" x="182.569" y="-156.045" font-family="Times,serif" font-size="14.00">authenticate_scope!</text>
<text text-anchor="start" x="182.569" y="-142.045" font-family="Times,serif" font-size="14.00">build_resource</text>
<text text-anchor="start" x="182.569" y="-128.045" font-family="Times,serif" font-size="14.00">sign_up</text>
<text text-anchor="start" x="182.569" y="-114.045" font-family="Times,serif" font-size="14.00">sign_up_params</text>
<text text-anchor="start" x="182.569" y="-100.045" font-family="Times,serif" font-size="14.00">translation_scope</text>
<text text-anchor="start" x="182.569" y="-86.0453" font-family="Times,serif" font-size="14.00">update_needs_confirmation?</text>
<text text-anchor="start" x="182.569" y="-72.0453" font-family="Times,serif" font-size="14.00">account_update_params</text>
<polyline fill="none" stroke="black" points="174.569,-65.2453 373.287,-65.2453 "/>
<text text-anchor="start" x="182.569" y="-50.0453" font-family="Times,serif" font-size="14.00">_layout</text>
</g>
<!-- Devise::SessionsController -->
<g id="node7" class="node"><title>Devise::SessionsController</title>
<path fill="none" stroke="black" d="M-397.15,-151.58C-397.15,-151.58 -252.715,-151.58 -252.715,-151.58 -246.715,-151.58 -240.715,-157.58 -240.715,-163.58 -240.715,-163.58 -240.715,-339.58 -240.715,-339.58 -240.715,-345.58 -246.715,-351.58 -252.715,-351.58 -252.715,-351.58 -397.15,-351.58 -397.15,-351.58 -403.15,-351.58 -409.15,-345.58 -409.15,-339.58 -409.15,-339.58 -409.15,-163.58 -409.15,-163.58 -409.15,-157.58 -403.15,-151.58 -397.15,-151.58"/>
<text text-anchor="middle" x="-324.932" y="-336.38" font-family="Times,serif" font-size="14.00">Devise::SessionsController</text>
<polyline fill="none" stroke="black" points="-409.15,-329.58 -240.715,-329.58 "/>
<text text-anchor="start" x="-401.15" y="-314.38" font-family="Times,serif" font-size="14.00">create</text>
<text text-anchor="start" x="-401.15" y="-300.38" font-family="Times,serif" font-size="14.00">destroy</text>
<text text-anchor="start" x="-401.15" y="-286.38" font-family="Times,serif" font-size="14.00">new</text>
<polyline fill="none" stroke="black" points="-409.15,-279.58 -240.715,-279.58 "/>
<text text-anchor="start" x="-401.15" y="-264.38" font-family="Times,serif" font-size="14.00">auth_options</text>
<text text-anchor="start" x="-401.15" y="-250.38" font-family="Times,serif" font-size="14.00">serialize_options</text>
<text text-anchor="start" x="-401.15" y="-236.38" font-family="Times,serif" font-size="14.00">sign_in_params</text>
<text text-anchor="start" x="-401.15" y="-222.38" font-family="Times,serif" font-size="14.00">translation_scope</text>
<polyline fill="none" stroke="black" points="-409.15,-215.58 -240.715,-215.58 "/>
<text text-anchor="start" x="-401.15" y="-200.38" font-family="Times,serif" font-size="14.00">_layout</text>
<text text-anchor="start" x="-401.15" y="-186.38" font-family="Times,serif" font-size="14.00">all_signed_out?</text>
<text text-anchor="start" x="-401.15" y="-172.38" font-family="Times,serif" font-size="14.00">respond_to_on_destroy</text>
<text text-anchor="start" x="-401.15" y="-158.38" font-family="Times,serif" font-size="14.00">verify_signed_out_user</text>
</g>
<!-- Devise::UnlocksController -->
<g id="node8" class="node"><title>Devise::UnlocksController</title>
<path fill="none" stroke="black" d="M-436.112,373.851C-436.112,373.851 -196.057,373.851 -196.057,373.851 -190.057,373.851 -184.057,367.851 -184.057,361.851 -184.057,361.851 -184.057,241.851 -184.057,241.851 -184.057,235.851 -190.057,229.851 -196.057,229.851 -196.057,229.851 -436.112,229.851 -436.112,229.851 -442.112,229.851 -448.112,235.851 -448.112,241.851 -448.112,241.851 -448.112,361.851 -448.112,361.851 -448.112,367.851 -442.112,373.851 -436.112,373.851"/>
<text text-anchor="middle" x="-316.084" y="245.051" font-family="Times,serif" font-size="14.00">Devise::UnlocksController</text>
<polyline fill="none" stroke="black" points="-448.112,251.851 -184.057,251.851 "/>
<text text-anchor="start" x="-440.112" y="267.051" font-family="Times,serif" font-size="14.00">create</text>
<text text-anchor="start" x="-440.112" y="281.051" font-family="Times,serif" font-size="14.00">new</text>
<text text-anchor="start" x="-440.112" y="295.051" font-family="Times,serif" font-size="14.00">show</text>
<polyline fill="none" stroke="black" points="-448.112,301.851 -184.057,301.851 "/>
<text text-anchor="start" x="-440.112" y="317.051" font-family="Times,serif" font-size="14.00">after_sending_unlock_instructions_path_for</text>
<text text-anchor="start" x="-440.112" y="331.051" font-family="Times,serif" font-size="14.00">after_unlock_path_for</text>
<text text-anchor="start" x="-440.112" y="345.051" font-family="Times,serif" font-size="14.00">translation_scope</text>
<polyline fill="none" stroke="black" points="-448.112,351.851 -184.057,351.851 "/>
<text text-anchor="start" x="-440.112" y="367.051" font-family="Times,serif" font-size="14.00">_layout</text>
</g>
<!-- DeviseController&#45;&gt;Devise::ConfirmationsController -->
<g id="edge1" class="edge"><title>DeviseController&#45;&gt;Devise::ConfirmationsController</title>
<path fill="none" stroke="black" d="M105.836,99.685C131.373,118.732 158.881,139.249 184.357,158.252"/>
</g>
<!-- DeviseController&#45;&gt;Devise::OmniauthCallbacksController -->
<g id="edge2" class="edge"><title>DeviseController&#45;&gt;Devise::OmniauthCallbacksController</title>
<path fill="none" stroke="black" d="M1.68058,211.005C1.33235,220.995 0.994541,230.686 0.674859,239.857"/>
</g>
<!-- DeviseController&#45;&gt;Devise::PasswordsController -->
<g id="edge3" class="edge"><title>DeviseController&#45;&gt;Devise::PasswordsController</title>
<path fill="none" stroke="black" d="M-10.426,-157.328C-10.7318,-160.367 -11.0349,-163.379 -11.3347,-166.357"/>
</g>
<!-- DeviseController&#45;&gt;Devise::RegistrationsController -->
<g id="edge4" class="edge"><title>DeviseController&#45;&gt;Devise::RegistrationsController</title>
<path fill="none" stroke="black" d="M105.576,-53.5283C127.951,-71.9645 151.771,-91.5916 174.238,-110.104"/>
</g>
<!-- DeviseController&#45;&gt;Devise::SessionsController -->
<g id="edge5" class="edge"><title>DeviseController&#45;&gt;Devise::SessionsController</title>
<path fill="none" stroke="black" d="M-89.569,-54.8508C-137.456,-94.8772 -194.563,-142.61 -240.532,-181.033"/>
</g>
<!-- DeviseController&#45;&gt;Devise::UnlocksController -->
<g id="edge6" class="edge"><title>DeviseController&#45;&gt;Devise::UnlocksController</title>
<path fill="none" stroke="black" d="M-89.6042,109.689C-134.721,147.969 -187.785,192.992 -231.204,229.832"/>
</g>
</g>
</svg>
