<?xml version="1.0" encoding="UTF-8" standalone="no"?>
<!DOCTYPE svg PUBLIC "-//W3C//DTD SVG 1.1//EN"
 "http://www.w3.org/Graphics/SVG/1.1/DTD/svg11.dtd">
<!-- Generated by graphviz version 2.38.0 (20140413.2041)
 -->
<!-- Title: models_diagram Pages: 1 -->
<svg width="651pt" height="660pt"
 viewBox="0.00 0.00 651.19 660.00" xmlns="http://www.w3.org/2000/svg" xmlns:xlink="http://www.w3.org/1999/xlink">
<g id="graph0" class="graph" transform="scale(1 1) rotate(0) translate(4 656)">
<title>models_diagram</title>
<polygon fill="none" stroke="none" points="-4,4 -4,-656 647.193,-656 647.193,4 -4,4"/>
<!-- _diagram_info -->
<g id="node1" class="node"><title>_diagram_info</title>
<text text-anchor="start" x="8" y="-567.6" font-family="Times,serif" font-size="13.00">Models diagram</text>
<text text-anchor="start" x="8" y="-554.6" font-family="Times,serif" font-size="13.00">Date: Sep 15 2016 &#45; 17:54</text>
<text text-anchor="start" x="8" y="-541.6" font-family="Times,serif" font-size="13.00">Migration version: 20160915214137</text>
<text text-anchor="start" x="8" y="-528.6" font-family="Times,serif" font-size="13.00">Generated by RailRoady 1.5.1</text>
<text text-anchor="start" x="8" y="-515.6" font-family="Times,serif" font-size="13.00">http://railroady.prestonlee.com</text>
</g>
<!-- ApplicationRecord -->
<g id="node2" class="node"><title>ApplicationRecord</title>
<ellipse fill="none" stroke="black" cx="302.688" cy="-545.5" rx="77.2916" ry="18"/>
<text text-anchor="middle" x="302.688" y="-541.3" font-family="Times,serif" font-size="14.00">ApplicationRecord</text>
</g>
<!-- Comment -->
<g id="node3" class="node"><title>Comment</title>
<path fill="none" stroke="black" d="M262.575,-288.5C262.575,-288.5 412.8,-288.5 412.8,-288.5 418.8,-288.5 424.8,-294.5 424.8,-300.5 424.8,-300.5 424.8,-390.5 424.8,-390.5 424.8,-396.5 418.8,-402.5 412.8,-402.5 412.8,-402.5 262.575,-402.5 262.575,-402.5 256.575,-402.5 250.575,-396.5 250.575,-390.5 250.575,-390.5 250.575,-300.5 250.575,-300.5 250.575,-294.5 256.575,-288.5 262.575,-288.5"/>
<text text-anchor="middle" x="337.688" y="-387.3" font-family="Times,serif" font-size="14.00">Comment</text>
<polyline fill="none" stroke="black" points="250.575,-380.5 424.8,-380.5 "/>
<text text-anchor="start" x="258.575" y="-365.3" font-family="Times,serif" font-size="14.00">id :INTEGER</text>
<text text-anchor="start" x="258.575" y="-351.3" font-family="Times,serif" font-size="14.00">content :text</text>
<text text-anchor="start" x="258.575" y="-337.3" font-family="Times,serif" font-size="14.00">user_id :integer</text>
<text text-anchor="start" x="258.575" y="-323.3" font-family="Times,serif" font-size="14.00">recommendation_id :integer</text>
<text text-anchor="start" x="258.575" y="-309.3" font-family="Times,serif" font-size="14.00">created_at :datetime</text>
<text text-anchor="start" x="258.575" y="-295.3" font-family="Times,serif" font-size="14.00">updated_at :datetime</text>
</g>
<!-- Food -->
<g id="node4" class="node"><title>Food</title>
<path fill="none" stroke="black" d="M493.182,-302.5C493.182,-302.5 602.193,-302.5 602.193,-302.5 608.193,-302.5 614.193,-308.5 614.193,-314.5 614.193,-314.5 614.193,-376.5 614.193,-376.5 614.193,-382.5 608.193,-388.5 602.193,-388.5 602.193,-388.5 493.182,-388.5 493.182,-388.5 487.182,-388.5 481.182,-382.5 481.182,-376.5 481.182,-376.5 481.182,-314.5 481.182,-314.5 481.182,-308.5 487.182,-302.5 493.182,-302.5"/>
<text text-anchor="middle" x="547.688" y="-373.3" font-family="Times,serif" font-size="14.00">Food</text>
<polyline fill="none" stroke="black" points="481.182,-366.5 614.193,-366.5 "/>
<text text-anchor="start" x="489.182" y="-351.3" font-family="Times,serif" font-size="14.00">id :INTEGER</text>
<text text-anchor="start" x="489.182" y="-337.3" font-family="Times,serif" font-size="14.00">name :varchar</text>
<text text-anchor="start" x="489.182" y="-323.3" font-family="Times,serif" font-size="14.00">created_at :datetime</text>
<text text-anchor="start" x="489.182" y="-309.3" font-family="Times,serif" font-size="14.00">updated_at :datetime</text>
</g>
<!-- Mood -->
<g id="node5" class="node"><title>Mood</title>
<path fill="none" stroke="black" d="M427.182,-165.5C427.182,-165.5 536.193,-165.5 536.193,-165.5 542.193,-165.5 548.193,-171.5 548.193,-177.5 548.193,-177.5 548.193,-239.5 548.193,-239.5 548.193,-245.5 542.193,-251.5 536.193,-251.5 536.193,-251.5 427.182,-251.5 427.182,-251.5 421.182,-251.5 415.182,-245.5 415.182,-239.5 415.182,-239.5 415.182,-177.5 415.182,-177.5 415.182,-171.5 421.182,-165.5 427.182,-165.5"/>
<text text-anchor="middle" x="481.688" y="-236.3" font-family="Times,serif" font-size="14.00">Mood</text>
<polyline fill="none" stroke="black" points="415.182,-229.5 548.193,-229.5 "/>
<text text-anchor="start" x="423.182" y="-214.3" font-family="Times,serif" font-size="14.00">id :INTEGER</text>
<text text-anchor="start" x="423.182" y="-200.3" font-family="Times,serif" font-size="14.00">name :varchar</text>
<text text-anchor="start" x="423.182" y="-186.3" font-family="Times,serif" font-size="14.00">created_at :datetime</text>
<text text-anchor="start" x="423.182" y="-172.3" font-family="Times,serif" font-size="14.00">updated_at :datetime</text>
</g>
<!-- Food&#45;&gt;Mood -->
<g id="edge2" class="edge"><title>Food&#45;&gt;Mood</title>
<path fill="none" stroke="#44d9d4" d="M522.463,-292.903C517.313,-282.37 511.896,-271.29 506.752,-260.768"/>
<polygon fill="#44d9d4" stroke="#44d9d4" points="522.594,-293.172 522.943,-304.132 524.79,-297.664 526.986,-302.156 526.986,-302.156 526.986,-302.156 524.79,-297.664 531.029,-300.179 522.594,-293.172 522.594,-293.172"/>
<polygon fill="#44d9d4" stroke="#44d9d4" points="506.708,-260.678 506.359,-249.718 504.512,-256.186 502.316,-251.694 502.316,-251.694 502.316,-251.694 504.512,-256.186 498.273,-253.671 506.708,-260.678 506.708,-260.678"/>
</g>
<!-- Recommendation -->
<g id="node6" class="node"><title>Recommendation</title>
<path fill="none" stroke="black" d="M522.182,-0.5C522.182,-0.5 631.193,-0.5 631.193,-0.5 637.193,-0.5 643.193,-6.5 643.193,-12.5 643.193,-12.5 643.193,-116.5 643.193,-116.5 643.193,-122.5 637.193,-128.5 631.193,-128.5 631.193,-128.5 522.182,-128.5 522.182,-128.5 516.182,-128.5 510.182,-122.5 510.182,-116.5 510.182,-116.5 510.182,-12.5 510.182,-12.5 510.182,-6.5 516.182,-0.5 522.182,-0.5"/>
<text text-anchor="middle" x="576.688" y="-113.3" font-family="Times,serif" font-size="14.00">Recommendation</text>
<polyline fill="none" stroke="black" points="510.182,-106.5 643.193,-106.5 "/>
<text text-anchor="start" x="518.182" y="-91.3" font-family="Times,serif" font-size="14.00">mood_id :integer</text>
<text text-anchor="start" x="518.182" y="-77.3" font-family="Times,serif" font-size="14.00">user_id :integer</text>
<text text-anchor="start" x="518.182" y="-63.3" font-family="Times,serif" font-size="14.00">food_id :integer</text>
<text text-anchor="start" x="518.182" y="-49.3" font-family="Times,serif" font-size="14.00">id :INTEGER</text>
<text text-anchor="start" x="518.182" y="-35.3" font-family="Times,serif" font-size="14.00">rating :integer</text>
<text text-anchor="start" x="518.182" y="-21.3" font-family="Times,serif" font-size="14.00">created_at :datetime</text>
<text text-anchor="start" x="518.182" y="-7.3" font-family="Times,serif" font-size="14.00">updated_at :datetime</text>
</g>
<!-- Food&#45;&gt;Recommendation -->
<g id="edge1" class="edge"><title>Food&#45;&gt;Recommendation</title>
<path fill="none" stroke="#e9c1e0" d="M553.221,-293.842C554.69,-280.255 556.263,-265.569 557.688,-252 561.616,-214.586 565.87,-172.936 569.356,-138.503"/>
<ellipse fill="none" stroke="#e9c1e0" cx="552.753" cy="-298.164" rx="4" ry="4"/>
<polygon fill="#e9c1e0" stroke="#e9c1e0" points="569.358,-138.478 574.841,-128.981 569.861,-133.503 570.364,-128.528 570.364,-128.528 570.364,-128.528 569.861,-133.503 565.887,-128.076 569.358,-138.478 569.358,-138.478"/>
</g>
<!-- Mood&#45;&gt;Recommendation -->
<g id="edge3" class="edge"><title>Mood&#45;&gt;Recommendation</title>
<path fill="none" stroke="#a14b29" d="M514.538,-158.398C519.16,-151.489 523.986,-144.275 528.818,-137.052"/>
<ellipse fill="none" stroke="#a14b29" cx="512.158" cy="-161.955" rx="4.00002" ry="4.00002"/>
<polygon fill="#a14b29" stroke="#a14b29" points="528.92,-136.9 538.221,-131.091 531.7,-132.744 534.481,-128.588 534.481,-128.588 534.481,-128.588 531.7,-132.744 530.741,-126.086 528.92,-136.9 528.92,-136.9"/>
</g>
<!-- User -->
<g id="node7" class="node"><title>User</title>
<path fill="none" stroke="black" d="M410.41,-439.5C410.41,-439.5 590.966,-439.5 590.966,-439.5 596.966,-439.5 602.966,-445.5 602.966,-451.5 602.966,-451.5 602.966,-639.5 602.966,-639.5 602.966,-645.5 596.966,-651.5 590.966,-651.5 590.966,-651.5 410.41,-651.5 410.41,-651.5 404.41,-651.5 398.41,-645.5 398.41,-639.5 398.41,-639.5 398.41,-451.5 398.41,-451.5 398.41,-445.5 404.41,-439.5 410.41,-439.5"/>
<text text-anchor="middle" x="500.688" y="-636.3" font-family="Times,serif" font-size="14.00">User</text>
<polyline fill="none" stroke="black" points="398.41,-629.5 602.966,-629.5 "/>
<text text-anchor="start" x="406.41" y="-614.3" font-family="Times,serif" font-size="14.00">updated_at :datetime</text>
<text text-anchor="start" x="406.41" y="-600.3" font-family="Times,serif" font-size="14.00">email :varchar</text>
<text text-anchor="start" x="406.41" y="-586.3" font-family="Times,serif" font-size="14.00">encrypted_password :varchar</text>
<text text-anchor="start" x="406.41" y="-572.3" font-family="Times,serif" font-size="14.00">reset_password_token :varchar</text>
<text text-anchor="start" x="406.41" y="-558.3" font-family="Times,serif" font-size="14.00">reset_password_sent_at :datetime</text>
<text text-anchor="start" x="406.41" y="-544.3" font-family="Times,serif" font-size="14.00">remember_created_at :datetime</text>
<text text-anchor="start" x="406.41" y="-530.3" font-family="Times,serif" font-size="14.00">sign_in_count :integer</text>
<text text-anchor="start" x="406.41" y="-516.3" font-family="Times,serif" font-size="14.00">current_sign_in_at :datetime</text>
<text text-anchor="start" x="406.41" y="-502.3" font-family="Times,serif" font-size="14.00">last_sign_in_at :datetime</text>
<text text-anchor="start" x="406.41" y="-488.3" font-family="Times,serif" font-size="14.00">current_sign_in_ip :varchar</text>
<text text-anchor="start" x="406.41" y="-474.3" font-family="Times,serif" font-size="14.00">last_sign_in_ip :varchar</text>
<text text-anchor="start" x="406.41" y="-460.3" font-family="Times,serif" font-size="14.00">created_at :datetime</text>
<text text-anchor="start" x="406.41" y="-446.3" font-family="Times,serif" font-size="14.00">id :INTEGER</text>
</g>
<!-- User&#45;&gt;Comment -->
<g id="edge7" class="edge"><title>User&#45;&gt;Comment</title>
<path fill="none" stroke="#f50543" d="M409.05,-433.186C402.676,-425.442 396.385,-417.801 390.337,-410.455"/>
<ellipse fill="none" stroke="#f50543" cx="411.634" cy="-436.324" rx="4.00002" ry="4.00002"/>
<polygon fill="#f50543" stroke="#f50543" points="390.234,-410.329 387.352,-399.748 387.056,-406.469 383.878,-402.609 383.878,-402.609 383.878,-402.609 387.056,-406.469 380.404,-405.469 390.234,-410.329 390.234,-410.329"/>
</g>
<!-- User&#45;&gt;Food -->
<g id="edge5" class="edge"><title>User&#45;&gt;Food</title>
<path fill="none" stroke="#e12508" d="M528.02,-429.356C530.564,-418.639 533.046,-408.181 535.343,-398.504"/>
<polygon fill="#e12508" stroke="#e12508" points="527.942,-429.683 521.254,-438.373 526.788,-434.548 525.633,-439.413 525.633,-439.413 525.633,-439.413 526.788,-434.548 530.011,-440.452 527.942,-429.683 527.942,-429.683"/>
<polygon fill="#e12508" stroke="#e12508" points="535.356,-398.452 542.044,-389.762 536.51,-393.588 537.665,-388.723 537.665,-388.723 537.665,-388.723 536.51,-393.588 533.287,-387.683 535.356,-398.452 535.356,-398.452"/>
</g>
<!-- User&#45;&gt;Mood -->
<g id="edge6" class="edge"><title>User&#45;&gt;Mood</title>
<path fill="none" stroke="#a19636" d="M475.088,-429.357C473.726,-420.471 472.561,-411.61 471.688,-403 466.531,-352.15 468.452,-339.009 471.688,-288 472.225,-279.525 473.086,-270.566 474.083,-261.851"/>
<polygon fill="#a19636" stroke="#a19636" points="475.113,-429.517 472.261,-440.105 475.909,-434.453 476.704,-439.389 476.704,-439.389 476.704,-439.389 475.909,-434.453 481.147,-438.674 475.113,-429.517 475.113,-429.517"/>
<polygon fill="#a19636" stroke="#a19636" points="474.101,-261.703 479.772,-252.317 474.703,-256.739 475.305,-251.776 475.305,-251.776 475.305,-251.776 474.703,-256.739 470.837,-251.234 474.101,-261.703 474.101,-261.703"/>
</g>
<!-- User&#45;&gt;Recommendation -->
<g id="edge4" class="edge"><title>User&#45;&gt;Recommendation</title>
<path fill="none" stroke="#b0604e" d="M607.508,-435.706C613.928,-425.206 619.48,-414.255 623.688,-403 656.287,-315.808 631.056,-208.297 606.77,-138.385"/>
<ellipse fill="none" stroke="#b0604e" cx="605.312" cy="-439.164" rx="4.00002" ry="4.00002"/>
<polygon fill="#b0604e" stroke="#b0604e" points="606.703,-138.198 607.595,-127.268 605.029,-133.487 603.355,-128.775 603.355,-128.775 603.355,-128.775 605.029,-133.487 599.115,-130.282 606.703,-138.198 606.703,-138.198"/>
</g>
</g>
</svg>
