<?xml version="1.0" encoding="UTF-8" standalone="no"?>
<!DOCTYPE svg PUBLIC "-//W3C//DTD SVG 1.1//EN"
 "http://www.w3.org/Graphics/SVG/1.1/DTD/svg11.dtd">
<!-- Generated by graphviz version 2.38.0 (20140413.2041)
 -->
<!-- Title: models_diagram Pages: 1 -->
<svg width="544pt" height="297pt"
 viewBox="0.00 0.00 544.17 297.00" xmlns="http://www.w3.org/2000/svg" xmlns:xlink="http://www.w3.org/1999/xlink">
<g id="graph0" class="graph" transform="scale(1 1) rotate(0) translate(4 293)">
<title>models_diagram</title>
<polygon fill="none" stroke="none" points="-4,4 -4,-293 540.174,-293 540.174,4 -4,4"/>
<!-- _diagram_info -->
<g id="node1" class="node"><title>_diagram_info</title>
<text text-anchor="start" x="8" y="-274.6" font-family="Times,serif" font-size="13.00">Models diagram</text>
<text text-anchor="start" x="8" y="-261.6" font-family="Times,serif" font-size="13.00">Date: Sep 15 2016 &#45; 17:54</text>
<text text-anchor="start" x="8" y="-248.6" font-family="Times,serif" font-size="13.00">Migration version: 20160915214137</text>
<text text-anchor="start" x="8" y="-235.6" font-family="Times,serif" font-size="13.00">Generated by RailRoady 1.5.1</text>
<text text-anchor="start" x="8" y="-222.6" font-family="Times,serif" font-size="13.00">http://railroady.prestonlee.com</text>
</g>
<!-- ApplicationRecord -->
<g id="node2" class="node"><title>ApplicationRecord</title>
<ellipse fill="none" stroke="black" cx="302.688" cy="-252.5" rx="77.2916" ry="18"/>
<text text-anchor="middle" x="302.688" y="-248.3" font-family="Times,serif" font-size="14.00">ApplicationRecord</text>
</g>
<!-- Comment -->
<g id="node3" class="node"><title>Comment</title>
<ellipse fill="none" stroke="black" cx="323.688" cy="-162" rx="44.9768" ry="18"/>
<text text-anchor="middle" x="323.688" y="-157.8" font-family="Times,serif" font-size="14.00">Comment</text>
</g>
<!-- Food -->
<g id="node4" class="node"><title>Food</title>
<ellipse fill="none" stroke="black" cx="452.688" cy="-162" rx="28.0822" ry="18"/>
<text text-anchor="middle" x="452.688" y="-157.8" font-family="Times,serif" font-size="14.00">Food</text>
</g>
<!-- Mood -->
<g id="node5" class="node"><title>Mood</title>
<ellipse fill="none" stroke="black" cx="404.688" cy="-90" rx="31.4723" ry="18"/>
<text text-anchor="middle" x="404.688" y="-85.8" font-family="Times,serif" font-size="14.00">Mood</text>
</g>
<!-- Food&#45;&gt;Mood -->
<g id="edge2" class="edge"><title>Food&#45;&gt;Mood</title>
<path fill="none" stroke="#a58f30" d="M435.984,-136.641C431.305,-129.817 426.218,-122.398 421.531,-115.563"/>
<polygon fill="#a58f30" stroke="#a58f30" points="436.14,-136.869 438.085,-147.661 438.968,-140.992 441.796,-145.116 441.796,-145.116 441.796,-145.116 438.968,-140.992 445.507,-142.571 436.14,-136.869 436.14,-136.869"/>
<polygon fill="#a58f30" stroke="#a58f30" points="421.525,-115.554 419.581,-104.762 418.697,-111.431 415.87,-107.307 415.87,-107.307 415.87,-107.307 418.697,-111.431 412.158,-109.852 421.525,-115.554 421.525,-115.554"/>
</g>
<!-- Recommendation -->
<g id="node6" class="node"><title>Recommendation</title>
<ellipse fill="none" stroke="black" cx="463.688" cy="-18" rx="72.4722" ry="18"/>
<text text-anchor="middle" x="463.688" y="-13.8" font-family="Times,serif" font-size="14.00">Recommendation</text>
</g>
<!-- Food&#45;&gt;Recommendation -->
<g id="edge1" class="edge"><title>Food&#45;&gt;Recommendation</title>
<path fill="none" stroke="#2c6f43" d="M454.659,-135.558C456.604,-110.444 459.569,-72.164 461.566,-46.3932"/>
<ellipse fill="none" stroke="#2c6f43" cx="454.324" cy="-139.883" rx="4" ry="4"/>
<polygon fill="#2c6f43" stroke="#2c6f43" points="461.584,-46.1594 466.843,-36.5369 461.97,-41.1743 462.356,-36.1893 462.356,-36.1893 462.356,-36.1893 461.97,-41.1743 457.87,-35.8417 461.584,-46.1594 461.584,-46.1594"/>
</g>
<!-- Mood&#45;&gt;Recommendation -->
<g id="edge3" class="edge"><title>Mood&#45;&gt;Recommendation</title>
<path fill="none" stroke="#03e27e" d="M423.11,-67.1427C429.335,-59.7575 436.33,-51.4589 442.736,-43.8586"/>
<ellipse fill="none" stroke="#03e27e" cx="420.36" cy="-70.4062" rx="4.00002" ry="4.00002"/>
<polygon fill="#03e27e" stroke="#03e27e" points="442.947,-43.6081 452.832,-38.8619 446.169,-39.7849 449.391,-35.9618 449.391,-35.9618 449.391,-35.9618 446.169,-39.7849 445.951,-33.0617 442.947,-43.6081 442.947,-43.6081"/>
</g>
<!-- User -->
<g id="node7" class="node"><title>User</title>
<ellipse fill="none" stroke="black" cx="424.688" cy="-252.5" rx="27" ry="18"/>
<text text-anchor="middle" x="424.688" y="-248.3" font-family="Times,serif" font-size="14.00">User</text>
</g>
<!-- User&#45;&gt;Comment -->
<g id="edge7" class="edge"><title>User&#45;&gt;Comment</title>
<path fill="none" stroke="#9d0936" d="M404.816,-231.243C399.656,-226.168 394.041,-220.803 388.688,-216 376.827,-205.359 363.228,-194.13 351.545,-184.761"/>
<ellipse fill="none" stroke="#9d0936" cx="407.785" cy="-234.197" rx="4.00002" ry="4.00002"/>
<polygon fill="#9d0936" stroke="#9d0936" points="351.253,-184.529 346.231,-174.781 347.341,-181.415 343.429,-178.302 343.429,-178.302 343.429,-178.302 347.341,-181.415 340.626,-181.823 351.253,-184.529 351.253,-184.529"/>
</g>
<!-- User&#45;&gt;Food -->
<g id="edge5" class="edge"><title>User&#45;&gt;Food</title>
<path fill="none" stroke="#fd315b" d="M433.113,-224.871C436.667,-213.637 440.795,-200.591 444.341,-189.383"/>
<polygon fill="#fd315b" stroke="#fd315b" points="433.103,-224.902 425.796,-233.079 431.595,-229.669 430.086,-234.436 430.086,-234.436 430.086,-234.436 431.595,-229.669 434.377,-235.794 433.103,-224.902 433.103,-224.902"/>
<polygon fill="#fd315b" stroke="#fd315b" points="444.384,-189.245 451.691,-181.069 445.892,-184.478 447.401,-179.711 447.401,-179.711 447.401,-179.711 445.892,-184.478 443.11,-178.354 444.384,-189.245 444.384,-189.245"/>
</g>
<!-- User&#45;&gt;Mood -->
<g id="edge6" class="edge"><title>User&#45;&gt;Mood</title>
<path fill="none" stroke="#784bf8" d="M421.27,-224.462C419.583,-211.085 417.521,-194.694 415.688,-180 413.102,-159.274 410.206,-135.829 408.034,-118.207"/>
<polygon fill="#784bf8" stroke="#784bf8" points="421.279,-224.533 418.067,-235.018 421.905,-229.494 422.531,-234.454 422.531,-234.454 422.531,-234.454 421.905,-229.494 426.996,-233.891 421.279,-224.533 421.279,-224.533"/>
<polygon fill="#784bf8" stroke="#784bf8" points="408.008,-117.988 411.251,-107.513 407.396,-113.026 406.785,-108.063 406.785,-108.063 406.785,-108.063 407.396,-113.026 402.319,-108.613 408.008,-117.988 408.008,-117.988"/>
</g>
<!-- User&#45;&gt;Recommendation -->
<g id="edge4" class="edge"><title>User&#45;&gt;Recommendation</title>
<path fill="none" stroke="#7d967c" d="M448.27,-233.517C463.269,-220.51 481.377,-201.495 489.688,-180 507.175,-134.767 489.623,-77.99 476.091,-45.365"/>
<ellipse fill="none" stroke="#7d967c" cx="445.136" cy="-236.144" rx="4.00002" ry="4.00002"/>
<polygon fill="#7d967c" stroke="#7d967c" points="476.034,-45.233 476.194,-34.2683 474.049,-40.644 472.064,-36.055 472.064,-36.055 472.064,-36.055 474.049,-40.644 467.933,-37.8416 476.034,-45.233 476.034,-45.233"/>
</g>
</g>
</svg>
